<svg xmlns="http://www.w3.org/2000/svg" width="375" viewBox="0 0 375 375" height="375" version="1.0"><defs><clipPath id="a"><path d="M 49.25 145.25 L 137 145.25 L 137 204.5 L 49.25 204.5 Z M 49.25 145.25"/></clipPath></defs><g clip-path="url(#a)"><path fill="#6C98DB" d="M 132.738281 201.925781 C 130.371094 199.414062 128.0625 197.679688 125.785156 196.65625 C 143.796875 181.519531 152.179688 162.347656 150.644531 155.277344 C 148.125 171.8125 132.261719 190.839844 125.777344 196.652344 C 123.804688 195.761719 121.855469 195.414062 119.921875 195.5625 C 125.359375 188 130.539062 157.820312 127.402344 150.59375 C 129.914062 151.855469 132.539062 153.917969 136.964844 153.207031 C 131.480469 151.585938 129.417969 149.921875 124.789062 146.960938 C 129.453125 163.109375 123.164062 187.085938 119.609375 195.589844 C 118.21875 195.738281 116.832031 196.140625 115.449219 196.785156 C 115.582031 185.605469 102.898438 154.535156 94.972656 149.539062 C 99.65625 149.597656 103.101562 148.632812 107.335938 147.328125 C 110.242188 152.375 112.21875 158.382812 113.769531 164.335938 C 113.207031 157.832031 110.722656 151.339844 108.351562 145.285156 C 102.085938 147.128906 96.496094 147.640625 90.230469 147.667969 C 104.367188 160.050781 112.996094 186.207031 115.03125 196.988281 C 114.132812 197.441406 113.234375 197.992188 112.335938 198.644531 C 108.015625 189.339844 80.671875 167.804688 71.035156 167.539062 C 75.101562 165.195312 76.902344 162.949219 79.890625 159.667969 C 84.945312 162.53125 92.566406 169.421875 96.914062 173.757812 C 93.136719 168.441406 84.835938 161.054688 79.734375 157.050781 C 75.265625 161.832031 70.710938 165.125 65.328125 168.34375 C 84.226562 171.890625 105.464844 190.847656 112.148438 198.78125 C 111.617188 199.171875 111.085938 199.59375 110.554688 200.054688 C 92.742188 194.605469 74.566406 193.199219 53.144531 200.90625 C 55.457031 197.445312 56.304688 194.328125 56.359375 190.871094 C 66.40625 188.796875 78.09375 187.15625 91.753906 187.808594 C 81.617188 185.683594 67.460938 185.34375 54.835938 188.660156 C 53.78125 195.011719 51.664062 199.941406 49.25 204.476562 C 72.769531 196.207031 92.84375 196.136719 111.398438 203.285156 C 119.078125 197.277344 126.300781 197.21875 131.722656 203.457031 C 153.511719 202.058594 190.203125 201.152344 211.992188 202.945312 C 193.019531 200.648438 156.226562 200.59375 132.738281 201.925781 Z M 132.738281 201.925781" fill-rule="evenodd"/></g><g fill="#254D9D"><g><g><path d="M 17.5 -9.265625 C 21.945312 -14.328125 27.6875 -21.117188 34.71875 -29.640625 C 41.757812 -38.160156 46.945312 -44.207031 50.28125 -47.78125 C 53.613281 -51.363281 56.488281 -54.082031 58.90625 -55.9375 C 64.519531 -60.132812 70.226562 -62.234375 76.03125 -62.234375 C 77.332031 -62.234375 78.800781 -61.707031 80.4375 -60.65625 C 82.070312 -59.601562 82.890625 -57.96875 82.890625 -55.75 C 82.890625 -53.59375 80.820312 -50.257812 76.6875 -45.75 C 74.644531 -43.53125 71.691406 -41.257812 67.828125 -38.9375 C 63.972656 -36.625 59.671875 -34.757812 54.921875 -33.34375 C 53.128906 -33.03125 51.816406 -32.875 50.984375 -32.875 C 50.148438 -32.875 49.734375 -32.96875 49.734375 -33.15625 C 49.734375 -33.34375 49.945312 -33.554688 50.375 -33.796875 C 55.5625 -36.640625 61.378906 -40.929688 67.828125 -46.671875 C 74.285156 -52.410156 77.515625 -56.175781 77.515625 -57.96875 C 77.515625 -58.21875 77.34375 -58.34375 77 -58.34375 C 76.664062 -58.34375 76.296875 -58.28125 75.890625 -58.15625 C 75.492188 -58.03125 75.046875 -57.90625 74.546875 -57.78125 C 74.054688 -57.664062 73.007812 -57.160156 71.40625 -56.265625 C 69.800781 -55.367188 68.117188 -54.253906 66.359375 -52.921875 C 64.597656 -51.597656 62.40625 -49.5625 59.78125 -46.8125 C 57.15625 -44.0625 54.515625 -40.898438 51.859375 -37.328125 C 41.671875 -23.054688 35.066406 -14.285156 32.046875 -11.015625 C 31.546875 -10.460938 30.925781 -9.785156 30.1875 -8.984375 C 31.726562 -8.796875 34.039062 -8.578125 37.125 -8.328125 C 40.21875 -8.085938 42.304688 -7.890625 43.390625 -7.734375 C 44.472656 -7.578125 46.0625 -7.25 48.15625 -6.75 C 50.257812 -6.257812 51.925781 -5.644531 53.15625 -4.90625 C 56.363281 -2.925781 59.453125 -0.238281 62.421875 3.15625 C 63.097656 3.894531 63.4375 4.382812 63.4375 4.625 C 63.4375 4.875 63.34375 5 63.15625 5 C 62.851562 5 62.453125 4.875 61.953125 4.625 C 61.023438 4.382812 59.679688 4.046875 57.921875 3.609375 C 56.160156 3.179688 52.378906 2.625 46.578125 1.9375 C 40.773438 1.257812 35.453125 0.921875 30.609375 0.921875 C 25.765625 0.921875 22.226562 0.953125 20 1.015625 C 16.726562 4.109375 12.128906 6.976562 6.203125 9.625 C 0.273438 12.28125 -4.179688 13.609375 -7.171875 13.609375 C -10.171875 13.609375 -13 12.820312 -15.65625 11.25 C -18.3125 9.675781 -19.640625 7.5625 -19.640625 4.90625 C -19.640625 2.988281 -18.1875 0.890625 -15.28125 -1.390625 C -8.613281 -6.640625 2.3125 -9.265625 17.5 -9.265625 Z M -14.546875 7.59375 C -14.546875 8.207031 -13.800781 8.609375 -12.3125 8.796875 C -10.40625 8.796875 -8.769531 8.6875 -7.40625 8.46875 C -6.050781 8.257812 -4.0625 7.566406 -1.4375 6.390625 C 1.1875 5.210938 3.953125 3.484375 6.859375 1.203125 C 2.898438 1.203125 -1.65625 1.910156 -6.8125 3.328125 C -11.96875 4.753906 -14.546875 6.175781 -14.546875 7.59375 Z M -14.546875 7.59375" transform="translate(101.895 210.245)"/></g></g></g><g fill="#254D9D"><g><g><path d="M 32.5 -45.84375 C 33.125 -45.84375 33.523438 -45.71875 33.703125 -45.46875 C 34.566406 -44.414062 35 -43.566406 35 -42.921875 C 35 -42.273438 34.8125 -41.71875 34.4375 -41.25 C 34.070312 -40.789062 33.628906 -40.265625 33.109375 -39.671875 C 32.585938 -39.085938 31.535156 -38.285156 29.953125 -37.265625 C 28.378906 -36.253906 26.851562 -35.75 25.375 -35.75 C 24.257812 -35.9375 23.703125 -36.613281 23.703125 -37.78125 C 23.703125 -39.632812 24.8125 -41.441406 27.03125 -43.203125 C 29.257812 -44.960938 31.082031 -45.84375 32.5 -45.84375 Z M 10.28125 -9.359375 C 9.78125 -8.492188 9.53125 -7.71875 9.53125 -7.03125 C 9.53125 -6.351562 9.90625 -6.015625 10.65625 -6.015625 C 11.082031 -6.015625 11.820312 -6.203125 12.875 -6.578125 C 24.414062 -12.628906 35.710938 -19.757812 46.765625 -27.96875 C 47.316406 -27.53125 47.59375 -27.003906 47.59375 -26.390625 C 47.59375 -25.773438 47.285156 -25.1875 46.671875 -24.625 C 46.054688 -24.070312 45.175781 -23.269531 44.03125 -22.21875 C 42.894531 -21.175781 40.71875 -19.296875 37.5 -16.578125 C 34.289062 -13.859375 31.300781 -11.390625 28.53125 -9.171875 C 21.238281 -3.304688 15.863281 0.148438 12.40625 1.203125 C 11.300781 1.515625 10.097656 1.671875 8.796875 1.671875 C 4.046875 1.671875 1.671875 -0.859375 1.671875 -5.921875 C 1.671875 -7.898438 2.75 -10.722656 4.90625 -14.390625 C 7.070312 -18.066406 9.296875 -21.3125 11.578125 -24.125 C 13.859375 -26.9375 15.367188 -28.492188 16.109375 -28.796875 C 17.222656 -29.472656 18.425781 -29.8125 19.71875 -29.8125 C 21.019531 -29.8125 22.257812 -29.566406 23.4375 -29.078125 C 23.800781 -28.890625 23.984375 -28.640625 23.984375 -28.328125 C 23.984375 -28.023438 23.6875 -27.5625 23.09375 -26.9375 C 22.507812 -26.320312 21.613281 -25.367188 20.40625 -24.078125 C 19.207031 -22.785156 17.421875 -20.546875 15.046875 -17.359375 C 12.671875 -14.179688 11.082031 -11.515625 10.28125 -9.359375 Z M 10.28125 -9.359375" transform="translate(156.992 210.245)"/></g></g></g><g fill="#254D9D"><g><g><path d="M 42.5 -42.78125 L 47.234375 -42.875 C 53.347656 -42.875 57.789062 -42.007812 60.5625 -40.28125 C 61.925781 -39.851562 62.609375 -39.300781 62.609375 -38.625 C 62.609375 -38.125 62.003906 -37.78125 60.796875 -37.59375 C 59.597656 -37.414062 55.429688 -36.9375 48.296875 -36.15625 C 41.160156 -35.382812 36.269531 -34.941406 33.625 -34.828125 C 32.445312 -34.765625 29.742188 -32.722656 25.515625 -28.703125 C 21.285156 -24.691406 17.253906 -20.28125 13.421875 -15.46875 C 9.597656 -10.65625 7.6875 -7.289062 7.6875 -5.375 C 7.6875 -5.0625 7.835938 -4.796875 8.140625 -4.578125 C 8.453125 -4.367188 8.835938 -4.265625 9.296875 -4.265625 C 9.765625 -4.265625 10.492188 -4.445312 11.484375 -4.8125 C 23.210938 -11.726562 34.601562 -19.289062 45.65625 -27.5 C 46.207031 -27.070312 46.484375 -26.546875 46.484375 -25.921875 C 46.484375 -25.304688 46.175781 -24.707031 45.5625 -24.125 C 44.945312 -23.539062 44.035156 -22.691406 42.828125 -21.578125 C 41.628906 -20.460938 39.390625 -18.453125 36.109375 -15.546875 C 32.835938 -12.648438 29.753906 -10.0625 26.859375 -7.78125 C 19.078125 -1.476562 13.644531 2.164062 10.5625 3.15625 C 9.445312 3.457031 8.132812 3.609375 6.625 3.609375 C 5.113281 3.609375 3.722656 2.835938 2.453125 1.296875 C 1.191406 -0.242188 0.5625 -2.34375 0.5625 -5 C 0.5625 -7.65625 2.269531 -11.484375 5.6875 -16.484375 C 9.113281 -21.484375 13.789062 -26.609375 19.71875 -31.859375 C 20.28125 -32.285156 20.5625 -32.6875 20.5625 -33.0625 C 20.5625 -33.4375 19.910156 -33.625 18.609375 -33.625 L 12.78125 -33.4375 C 4.570312 -33.4375 0.34375 -34.359375 0.09375 -36.203125 C -1.820312 -36.578125 -2.78125 -37.132812 -2.78125 -37.875 C -2.78125 -38.125 -2.65625 -38.265625 -2.40625 -38.296875 C -2.15625 -38.328125 -1.9375 -38.359375 -1.75 -38.390625 C -1.570312 -38.421875 -1.265625 -38.46875 -0.828125 -38.53125 C -0.398438 -38.59375 3.003906 -39.082031 9.390625 -40 C 15.785156 -40.925781 23.054688 -41.703125 31.203125 -42.328125 L 37.59375 -50.84375 C 37.96875 -51.582031 39.265625 -51.953125 41.484375 -51.953125 C 43.710938 -51.953125 44.828125 -51.488281 44.828125 -50.5625 C 44.828125 -50.257812 44.578125 -49.703125 44.078125 -48.890625 L 41.765625 -45.65625 C 41.453125 -44.664062 41.269531 -43.925781 41.21875 -43.4375 C 41.21875 -43 41.644531 -42.78125 42.5 -42.78125 Z M 42.5 -42.78125" transform="translate(184.773 210.245)"/></g></g></g><g fill="#254D9D"><g><g><path d="M 42.5 -42.78125 L 47.234375 -42.875 C 53.347656 -42.875 57.789062 -42.007812 60.5625 -40.28125 C 61.925781 -39.851562 62.609375 -39.300781 62.609375 -38.625 C 62.609375 -38.125 62.003906 -37.78125 60.796875 -37.59375 C 59.597656 -37.414062 55.429688 -36.9375 48.296875 -36.15625 C 41.160156 -35.382812 36.269531 -34.941406 33.625 -34.828125 C 32.445312 -34.765625 29.742188 -32.722656 25.515625 -28.703125 C 21.285156 -24.691406 17.253906 -20.28125 13.421875 -15.46875 C 9.597656 -10.65625 7.6875 -7.289062 7.6875 -5.375 C 7.6875 -5.0625 7.835938 -4.796875 8.140625 -4.578125 C 8.453125 -4.367188 8.835938 -4.265625 9.296875 -4.265625 C 9.765625 -4.265625 10.492188 -4.445312 11.484375 -4.8125 C 23.210938 -11.726562 34.601562 -19.289062 45.65625 -27.5 C 46.207031 -27.070312 46.484375 -26.546875 46.484375 -25.921875 C 46.484375 -25.304688 46.175781 -24.707031 45.5625 -24.125 C 44.945312 -23.539062 44.035156 -22.691406 42.828125 -21.578125 C 41.628906 -20.460938 39.390625 -18.453125 36.109375 -15.546875 C 32.835938 -12.648438 29.753906 -10.0625 26.859375 -7.78125 C 19.078125 -1.476562 13.644531 2.164062 10.5625 3.15625 C 9.445312 3.457031 8.132812 3.609375 6.625 3.609375 C 5.113281 3.609375 3.722656 2.835938 2.453125 1.296875 C 1.191406 -0.242188 0.5625 -2.34375 0.5625 -5 C 0.5625 -7.65625 2.269531 -11.484375 5.6875 -16.484375 C 9.113281 -21.484375 13.789062 -26.609375 19.71875 -31.859375 C 20.28125 -32.285156 20.5625 -32.6875 20.5625 -33.0625 C 20.5625 -33.4375 19.910156 -33.625 18.609375 -33.625 L 12.78125 -33.4375 C 4.570312 -33.4375 0.34375 -34.359375 0.09375 -36.203125 C -1.820312 -36.578125 -2.78125 -37.132812 -2.78125 -37.875 C -2.78125 -38.125 -2.65625 -38.265625 -2.40625 -38.296875 C -2.15625 -38.328125 -1.9375 -38.359375 -1.75 -38.390625 C -1.570312 -38.421875 -1.265625 -38.46875 -0.828125 -38.53125 C -0.398438 -38.59375 3.003906 -39.082031 9.390625 -40 C 15.785156 -40.925781 23.054688 -41.703125 31.203125 -42.328125 L 37.59375 -50.84375 C 37.96875 -51.582031 39.265625 -51.953125 41.484375 -51.953125 C 43.710938 -51.953125 44.828125 -51.488281 44.828125 -50.5625 C 44.828125 -50.257812 44.578125 -49.703125 44.078125 -48.890625 L 41.765625 -45.65625 C 41.453125 -44.664062 41.269531 -43.925781 41.21875 -43.4375 C 41.21875 -43 41.644531 -42.78125 42.5 -42.78125 Z M 42.5 -42.78125" transform="translate(213.757 210.245)"/></g></g></g><g fill="#254D9D"><g><g><path d="M 5.28125 -4.078125 C 7.257812 -4.078125 9.695312 -5.375 12.59375 -7.96875 C 15.5 -10.5625 17.007812 -12.347656 17.125 -13.328125 C 16.382812 -13.953125 15.597656 -15.082031 14.765625 -16.71875 C 13.929688 -18.351562 13.484375 -19.171875 13.421875 -19.171875 C 11.515625 -17.378906 9.816406 -15.3125 8.328125 -12.96875 C 5.984375 -9.007812 4.8125 -6.289062 4.8125 -4.8125 C 4.8125 -4.320312 4.96875 -4.078125 5.28125 -4.078125 Z M 25.28125 -26.765625 C 24.664062 -26.765625 23.382812 -25.804688 21.4375 -23.890625 C 19.488281 -21.972656 18.515625 -20.644531 18.515625 -19.90625 C 18.515625 -19.726562 18.703125 -19.359375 19.078125 -18.796875 C 19.453125 -18.242188 19.726562 -17.96875 19.90625 -17.96875 C 20.957031 -17.96875 22.144531 -19.234375 23.46875 -21.765625 C 24.800781 -24.296875 25.46875 -25.757812 25.46875 -26.15625 C 25.46875 -26.5625 25.40625 -26.765625 25.28125 -26.765625 Z M 25.46875 -14.8125 C 27.195312 -14.8125 29.894531 -15.859375 33.5625 -17.953125 C 37.238281 -20.054688 40.46875 -22.160156 43.25 -24.265625 L 47.421875 -27.5 C 47.972656 -27.070312 48.25 -26.546875 48.25 -25.921875 C 48.25 -25.304688 47.972656 -24.753906 47.421875 -24.265625 C 37.234375 -14.816406 29.515625 -10.09375 24.265625 -10.09375 C 23.890625 -10.09375 23.332031 -10.15625 22.59375 -10.28125 C 15.613281 -2.1875 9.625 1.859375 4.625 1.859375 C 1.289062 1.359375 -0.804688 0.179688 -1.671875 -1.671875 C -2.160156 -2.597656 -2.40625 -3.769531 -2.40625 -5.1875 C -2.40625 -9.257812 -0.0625 -14.117188 4.625 -19.765625 C 9.320312 -25.421875 15.21875 -29.578125 22.3125 -32.234375 C 22.9375 -32.234375 23.398438 -32.09375 23.703125 -31.8125 C 24.015625 -31.53125 24.289062 -31.375 24.53125 -31.34375 C 24.78125 -31.3125 25.101562 -31.4375 25.5 -31.71875 C 25.90625 -32 26.445312 -32.15625 27.125 -32.1875 C 27.8125 -32.21875 28.523438 -31.832031 29.265625 -31.03125 C 30.253906 -30.21875 30.75 -29.226562 30.75 -28.0625 C 30.75 -24.601562 28.988281 -20.1875 25.46875 -14.8125 Z M 25.46875 -14.8125" transform="translate(242.741 210.245)"/></g></g></g><g fill="#6C98DB"><g><g><path d="M 0.390625 0 L 6.667969 0 C 6.640625 -0.300781 6.707031 -0.53125 6.796875 -0.792969 L 7.070312 -1.613281 L 6.773438 -1.613281 L 6.550781 -1.222656 C 6.304688 -0.804688 5.941406 -0.453125 5.121094 -0.414062 L 3.09375 -0.3125 C 2.546875 -0.300781 2.351562 -0.53125 2.351562 -0.9375 L 2.351562 -7.136719 C 2.351562 -7.617188 2.625 -7.707031 3.144531 -7.8125 L 3.144531 -8.070312 L 0.390625 -8.070312 L 0.390625 -7.8125 C 0.910156 -7.707031 1.167969 -7.617188 1.167969 -7.136719 L 1.167969 -0.9375 C 1.167969 -0.453125 0.910156 -0.363281 0.390625 -0.273438 Z M 0.390625 0" transform="translate(108.886 237.384)"/></g></g></g><g fill="#376AA9"><g><g><path d="M 5.535156 -1.363281 C 5.09375 -0.804688 4.523438 -0.636719 3.964844 -0.636719 C 2.808594 -0.636719 1.882812 -1.339844 1.574219 -2.484375 C 1.535156 -2.792969 1.585938 -2.964844 1.84375 -2.964844 L 3.367188 -2.988281 C 5.03125 -3.027344 5.730469 -3.25 5.730469 -4.066406 C 5.730469 -5.132812 4.808594 -5.980469 3.429688 -5.980469 C 1.859375 -5.980469 0.390625 -4.875 0.390625 -2.9375 C 0.390625 -1.078125 1.769531 0.078125 3.390625 0.078125 C 4.707031 0.078125 5.511719 -0.742188 5.757812 -1.195312 Z M 3.222656 -5.667969 C 4.160156 -5.667969 4.667969 -5.054688 4.667969 -4.199219 C 4.667969 -3.601562 4.261719 -3.300781 3.015625 -3.289062 L 1.871094 -3.261719 C 1.597656 -3.261719 1.457031 -3.339844 1.480469 -3.808594 C 1.585938 -4.953125 2.183594 -5.667969 3.222656 -5.667969 Z M 3.222656 -5.667969" transform="translate(120.113 237.384)"/></g></g></g><g fill="#376AA9"><g><g><path d="M 2.078125 0.078125 C 2.910156 0.078125 3.742188 -0.285156 4.210938 -0.871094 C 4.300781 -0.988281 4.40625 -0.988281 4.40625 -0.871094 C 4.417969 -0.207031 4.769531 0.0664062 5.289062 0.0664062 C 5.550781 0.0664062 5.863281 -0.0117188 6.097656 -0.167969 L 6.097656 -0.414062 C 5.667969 -0.3125 5.445312 -0.480469 5.445312 -0.9375 L 5.445312 -3.847656 C 5.445312 -5.289062 4.898438 -5.980469 3.40625 -5.980469 C 2.15625 -5.980469 0.820312 -5.472656 0.820312 -4.574219 C 0.820312 -4.238281 1 -4.003906 1.339844 -4.003906 C 1.691406 -4.003906 1.910156 -4.222656 1.910156 -4.679688 C 1.910156 -5.289062 2.234375 -5.640625 2.9375 -5.640625 C 3.964844 -5.640625 4.40625 -4.976562 4.40625 -4.082031 L 4.40625 -3.808594 C 4.40625 -3.546875 4.289062 -3.46875 4.105469 -3.457031 C 1.183594 -3.121094 0.390625 -2.351562 0.390625 -1.351562 C 0.390625 -0.339844 1.207031 0.078125 2.078125 0.078125 Z M 2.730469 -0.519531 C 1.910156 -0.519531 1.519531 -1.078125 1.519531 -1.664062 C 1.519531 -2.273438 1.976562 -2.886719 3.886719 -3.121094 C 4.339844 -3.171875 4.40625 -2.976562 4.40625 -2.675781 L 4.40625 -1.898438 C 4.40625 -1.183594 3.625 -0.519531 2.730469 -0.519531 Z M 2.730469 -0.519531" transform="translate(130.199 237.384)"/></g></g></g><g fill="#376AA9"><g><g><path d="M 0.339844 0 L 3.082031 0 L 3.082031 -0.261719 C 2.429688 -0.339844 2.210938 -0.480469 2.210938 -0.960938 L 2.210938 -3.390625 C 2.210938 -4.613281 2.847656 -5.382812 3.585938 -5.382812 C 4.015625 -5.382812 4.25 -5.09375 4.25 -4.757812 C 4.25 -4.523438 4.457031 -4.300781 4.796875 -4.300781 C 5.132812 -4.300781 5.394531 -4.5625 5.394531 -4.9375 C 5.394531 -5.289062 5.210938 -5.980469 4.199219 -5.980469 C 3.261719 -5.980469 2.664062 -5.316406 2.484375 -5.132812 C 2.300781 -4.953125 2.210938 -5.070312 2.210938 -5.5625 C 2.210938 -5.886719 2.039062 -6.019531 1.753906 -5.953125 L 0.324219 -5.628906 L 0.324219 -5.382812 C 1.054688 -5.457031 1.167969 -5.210938 1.167969 -4.640625 L 1.167969 -0.960938 C 1.167969 -0.480469 0.949219 -0.339844 0.339844 -0.261719 Z M 0.339844 0" transform="translate(140.454 237.384)"/></g></g></g><g fill="#376AA9"><g><g><path d="M 6.109375 0.0664062 C 6.433594 0.0664062 6.695312 -0.0273438 6.941406 -0.167969 L 6.941406 -0.414062 C 6.511719 -0.3125 6.289062 -0.480469 6.289062 -0.9375 L 6.289062 -3.859375 C 6.289062 -5.382812 5.367188 -5.980469 4.394531 -5.980469 C 3.261719 -5.980469 2.675781 -5.265625 2.507812 -5.082031 C 2.328125 -4.898438 2.210938 -5.070312 2.210938 -5.5625 C 2.210938 -5.886719 2.039062 -6.019531 1.753906 -5.953125 L 0.324219 -5.628906 L 0.324219 -5.382812 C 1.054688 -5.457031 1.167969 -5.210938 1.167969 -4.640625 L 1.167969 -0.960938 C 1.167969 -0.480469 0.949219 -0.339844 0.339844 -0.261719 L 0.339844 0 L 3.054688 0 L 3.054688 -0.261719 C 2.429688 -0.339844 2.210938 -0.480469 2.210938 -0.960938 L 2.210938 -3.585938 C 2.210938 -4.550781 2.847656 -5.328125 3.78125 -5.328125 C 4.757812 -5.328125 5.25 -4.589844 5.25 -3.585938 L 5.25 -0.820312 C 5.25 -0.167969 5.589844 0.0664062 6.109375 0.0664062 Z M 6.109375 0.0664062" transform="translate(149.942 237.384)"/></g></g></g><g fill="#376AA9"><g><g><path d="M 0.390625 0 L 3.144531 0 L 3.144531 -0.273438 C 2.625 -0.363281 2.351562 -0.453125 2.351562 -0.9375 L 2.351562 -7.136719 C 2.351562 -7.617188 2.625 -7.707031 3.144531 -7.8125 L 3.144531 -8.070312 L 0.390625 -8.070312 L 0.390625 -7.8125 C 0.910156 -7.707031 1.167969 -7.617188 1.167969 -7.136719 L 1.167969 -0.9375 C 1.167969 -0.453125 0.910156 -0.363281 0.390625 -0.273438 Z M 0.390625 0" transform="translate(167.281 237.384)"/></g></g></g><g fill="#376AA9"><g><g><path d="M 2.523438 0.0664062 C 3.105469 0.0664062 3.457031 -0.144531 3.640625 -0.300781 L 3.496094 -0.546875 C 3.390625 -0.46875 3.183594 -0.351562 2.832031 -0.351562 C 2.25 -0.351562 2.066406 -0.871094 2.066406 -1.519531 L 2.066406 -5.238281 C 2.066406 -5.433594 2.15625 -5.511719 2.328125 -5.511719 L 3.496094 -5.511719 L 3.496094 -5.863281 L 2.328125 -5.863281 C 2.15625 -5.863281 2.066406 -5.941406 2.066406 -6.199219 L 2.066406 -7.214844 L 1.714844 -7.214844 C 1.535156 -6.316406 1.054688 -5.914062 0.195312 -5.757812 L 0.195312 -5.511719 L 0.742188 -5.511719 C 0.921875 -5.511719 1.027344 -5.445312 1.027344 -5.238281 L 1.027344 -1.675781 C 1.027344 -0.390625 1.636719 0.0664062 2.523438 0.0664062 Z M 2.523438 0.0664062" transform="translate(174.716 237.384)"/></g></g></g><g fill="#376AA9"><g><g><path d="M 2.210938 0 L 5.484375 0 L 5.484375 -0.273438 C 4.707031 -0.363281 4.445312 -0.453125 4.445312 -0.9375 L 4.445312 -7.03125 C 4.445312 -7.472656 4.523438 -7.65625 5.496094 -7.65625 C 6.40625 -7.65625 6.71875 -7.394531 7.070312 -6.382812 L 7.371094 -6.382812 L 7.160156 -8.109375 L 6.421875 -8.070312 L 1.273438 -8.070312 L 0.53125 -8.109375 L 0.324219 -6.382812 L 0.625 -6.382812 C 0.988281 -7.394531 1.285156 -7.65625 2.195312 -7.65625 C 3.171875 -7.65625 3.261719 -7.472656 3.261719 -7.03125 L 3.261719 -0.9375 C 3.261719 -0.453125 2.988281 -0.363281 2.210938 -0.273438 Z M 2.210938 0" transform="translate(188.754 237.384)"/></g></g></g><g fill="#376AA9"><g><g><path d="M 3.40625 0.078125 C 5.03125 0.078125 6.460938 -1.105469 6.460938 -2.976562 C 6.460938 -4.847656 5.042969 -5.980469 3.445312 -5.980469 C 1.832031 -5.980469 0.390625 -4.808594 0.390625 -2.9375 C 0.390625 -1.066406 1.820312 0.078125 3.40625 0.078125 Z M 3.71875 -0.273438 C 2.429688 -0.273438 1.480469 -1.691406 1.480469 -3.367188 C 1.480469 -4.914062 2.195312 -5.628906 3.132812 -5.628906 C 4.433594 -5.628906 5.367188 -4.210938 5.367188 -2.535156 C 5.367188 -1 4.667969 -0.273438 3.71875 -0.273438 Z M 3.71875 -0.273438" transform="translate(200.348 237.384)"/></g></g></g><g fill="#376AA9"><g><g><path d="M 1.910156 -2.066406 C 2.289062 -2.066406 2.574219 -1.960938 3.066406 -1.960938 C 4.484375 -1.960938 5.382812 -2.753906 5.382812 -3.988281 C 5.382812 -4.964844 5.433594 -5.171875 5.757812 -5.054688 C 6.058594 -4.953125 6.394531 -5.109375 6.394531 -5.472656 C 6.394531 -5.757812 6.171875 -5.953125 5.808594 -5.953125 C 5.304688 -5.953125 5.09375 -5.574219 5.070312 -5.070312 C 4.652344 -5.679688 3.859375 -5.980469 2.976562 -5.980469 C 1.46875 -5.980469 0.585938 -5.148438 0.585938 -3.953125 C 0.585938 -3.171875 0.949219 -2.625 1.519531 -2.300781 C 0.832031 -2.171875 0.46875 -1.871094 0.46875 -1.402344 C 0.46875 -0.960938 0.78125 -0.597656 1.246094 -0.507812 C 1.691406 -0.429688 0.195312 -0.324219 0.195312 0.871094 C 0.195312 1.871094 1.261719 2.46875 2.664062 2.46875 C 4.300781 2.46875 6.042969 1.652344 6.042969 0.402344 C 6.042969 -0.390625 5.304688 -0.6875 4.082031 -0.898438 L 2 -1.261719 C 1.652344 -1.3125 1.402344 -1.417969 1.402344 -1.691406 C 1.402344 -1.910156 1.574219 -2.066406 1.910156 -2.066406 Z M 2.769531 -5.691406 C 3.691406 -5.691406 4.277344 -4.847656 4.277344 -3.664062 C 4.277344 -2.988281 4.015625 -2.25 3.183594 -2.25 C 2.273438 -2.25 1.691406 -3.09375 1.691406 -4.277344 C 1.691406 -4.953125 1.9375 -5.691406 2.769531 -5.691406 Z M 2.585938 -0.246094 L 3.9375 -0.0273438 C 4.691406 0.105469 5.042969 0.300781 5.042969 0.714844 C 5.042969 1.636719 4.171875 2.117188 3.210938 2.117188 C 1.988281 2.117188 1.222656 1.519531 1.222656 0.714844 C 1.222656 0.0898438 1.730469 -0.390625 2.585938 -0.246094 Z M 2.585938 -0.246094" transform="translate(211.097 237.384)"/></g></g></g><g fill="#376AA9"><g><g><path d="M 5.535156 -1.363281 C 5.09375 -0.804688 4.523438 -0.636719 3.964844 -0.636719 C 2.808594 -0.636719 1.882812 -1.339844 1.574219 -2.484375 C 1.535156 -2.792969 1.585938 -2.964844 1.84375 -2.964844 L 3.367188 -2.988281 C 5.03125 -3.027344 5.730469 -3.25 5.730469 -4.066406 C 5.730469 -5.132812 4.808594 -5.980469 3.429688 -5.980469 C 1.859375 -5.980469 0.390625 -4.875 0.390625 -2.9375 C 0.390625 -1.078125 1.769531 0.078125 3.390625 0.078125 C 4.707031 0.078125 5.511719 -0.742188 5.757812 -1.195312 Z M 3.222656 -5.667969 C 4.160156 -5.667969 4.667969 -5.054688 4.667969 -4.199219 C 4.667969 -3.601562 4.261719 -3.300781 3.015625 -3.289062 L 1.871094 -3.261719 C 1.597656 -3.261719 1.457031 -3.339844 1.480469 -3.808594 C 1.585938 -4.953125 2.183594 -5.667969 3.222656 -5.667969 Z M 3.222656 -5.667969" transform="translate(221.586 237.384)"/></g></g></g><g fill="#376AA9"><g><g><path d="M 2.523438 0.0664062 C 3.105469 0.0664062 3.457031 -0.144531 3.640625 -0.300781 L 3.496094 -0.546875 C 3.390625 -0.46875 3.183594 -0.351562 2.832031 -0.351562 C 2.25 -0.351562 2.066406 -0.871094 2.066406 -1.519531 L 2.066406 -5.238281 C 2.066406 -5.433594 2.15625 -5.511719 2.328125 -5.511719 L 3.496094 -5.511719 L 3.496094 -5.863281 L 2.328125 -5.863281 C 2.15625 -5.863281 2.066406 -5.941406 2.066406 -6.199219 L 2.066406 -7.214844 L 1.714844 -7.214844 C 1.535156 -6.316406 1.054688 -5.914062 0.195312 -5.757812 L 0.195312 -5.511719 L 0.742188 -5.511719 C 0.921875 -5.511719 1.027344 -5.445312 1.027344 -5.238281 L 1.027344 -1.675781 C 1.027344 -0.390625 1.636719 0.0664062 2.523438 0.0664062 Z M 2.523438 0.0664062" transform="translate(231.672 237.384)"/></g></g></g><g fill="#376AA9"><g><g><path d="M 6.160156 -0.9375 L 6.160156 -3.859375 C 6.160156 -5.382812 5.238281 -5.980469 4.261719 -5.980469 C 3.132812 -5.980469 2.574219 -5.265625 2.378906 -5.082031 C 2.195312 -4.898438 2.078125 -5.070312 2.078125 -5.5625 L 2.078125 -8.148438 C 2.078125 -8.449219 1.910156 -8.578125 1.625 -8.511719 L 0.195312 -8.203125 L 0.195312 -7.953125 C 0.921875 -8.019531 1.039062 -7.785156 1.039062 -7.214844 L 1.039062 -0.960938 C 1.039062 -0.480469 0.820312 -0.339844 0.207031 -0.261719 L 0.207031 0 L 2.925781 0 L 2.925781 -0.261719 C 2.300781 -0.339844 2.078125 -0.480469 2.078125 -0.960938 L 2.078125 -3.585938 C 2.078125 -4.550781 2.714844 -5.304688 3.652344 -5.304688 C 4.5625 -5.304688 5.121094 -4.550781 5.121094 -3.585938 L 5.121094 -0.820312 C 5.121094 -0.167969 5.457031 0.0664062 5.980469 0.0664062 C 6.304688 0.0664062 6.5625 -0.0273438 6.8125 -0.167969 L 6.8125 -0.414062 C 6.382812 -0.3125 6.160156 -0.480469 6.160156 -0.9375 Z M 6.160156 -0.9375" transform="translate(239.47 237.384)"/></g></g></g><g fill="#376AA9"><g><g><path d="M 5.535156 -1.363281 C 5.09375 -0.804688 4.523438 -0.636719 3.964844 -0.636719 C 2.808594 -0.636719 1.882812 -1.339844 1.574219 -2.484375 C 1.535156 -2.792969 1.585938 -2.964844 1.84375 -2.964844 L 3.367188 -2.988281 C 5.03125 -3.027344 5.730469 -3.25 5.730469 -4.066406 C 5.730469 -5.132812 4.808594 -5.980469 3.429688 -5.980469 C 1.859375 -5.980469 0.390625 -4.875 0.390625 -2.9375 C 0.390625 -1.078125 1.769531 0.078125 3.390625 0.078125 C 4.707031 0.078125 5.511719 -0.742188 5.757812 -1.195312 Z M 3.222656 -5.667969 C 4.160156 -5.667969 4.667969 -5.054688 4.667969 -4.199219 C 4.667969 -3.601562 4.261719 -3.300781 3.015625 -3.289062 L 1.871094 -3.261719 C 1.597656 -3.261719 1.457031 -3.339844 1.480469 -3.808594 C 1.585938 -4.953125 2.183594 -5.667969 3.222656 -5.667969 Z M 3.222656 -5.667969" transform="translate(250.44 237.384)"/></g></g></g><g fill="#376AA9"><g><g><path d="M 0.339844 0 L 3.082031 0 L 3.082031 -0.261719 C 2.429688 -0.339844 2.210938 -0.480469 2.210938 -0.960938 L 2.210938 -3.390625 C 2.210938 -4.613281 2.847656 -5.382812 3.585938 -5.382812 C 4.015625 -5.382812 4.25 -5.09375 4.25 -4.757812 C 4.25 -4.523438 4.457031 -4.300781 4.796875 -4.300781 C 5.132812 -4.300781 5.394531 -4.5625 5.394531 -4.9375 C 5.394531 -5.289062 5.210938 -5.980469 4.199219 -5.980469 C 3.261719 -5.980469 2.664062 -5.316406 2.484375 -5.132812 C 2.300781 -4.953125 2.210938 -5.070312 2.210938 -5.5625 C 2.210938 -5.886719 2.039062 -6.019531 1.753906 -5.953125 L 0.324219 -5.628906 L 0.324219 -5.382812 C 1.054688 -5.457031 1.167969 -5.210938 1.167969 -4.640625 L 1.167969 -0.960938 C 1.167969 -0.480469 0.949219 -0.339844 0.339844 -0.261719 Z M 0.339844 0" transform="translate(260.526 237.384)"/></g></g></g></svg>